{
    "asset" : {
        "generator" : "Khronos glTF Blender I/O v3.2.43",
        "version" : "2.0"
    },
    "scene" : 0,
    "scenes" : [
        {
            "name" : "Scene",
            "nodes" : [
                17
            ]
        }
    ],
    "nodes" : [
        {
            "name" : "index.002",
            "rotation" : [
                -0.0001699574349913746,
                -5.612498910068098e-08,
                -0.0002798551577143371,
                1
            ],
            "scale" : [
                0.9999999403953552,
                1,
                1
            ],
            "translation" : [
                -3.91554078049694e-09,
                0.03036871924996376,
                -6.687468356858517e-10
            ]
        },
        {
            "children" : [
                0
            ],
            "name" : "index.001",
            "rotation" : [
                0.0018365593859925866,
                -2.086009317281423e-06,
                0.0013992639724165201,
                0.9999973177909851
            ],
            "scale" : [
                0.9999999403953552,
                1,
                1
            ],
            "translation" : [
                -3.33816085884564e-09,
                0.02977255918085575,
                -1.425632945029065e-10
            ]
        },
        {
            "children" : [
                1
            ],
            "name" : "index.000",
            "rotation" : [
                -0.001666603027842939,
                1.8660231262401794e-06,
                -0.0011194356484338641,
                0.9999979734420776
            ],
            "scale" : [
                1,
                0.9999999403953552,
                1
            ],
            "translation" : [
                -0.039220403879880905,
                0.08171877264976501,
                -0.0012498535215854645
            ]
        },
        {
            "name" : "middle.002",
            "rotation" : [
                -0.00017650531663093716,
                -5.776443856575497e-08,
                -0.00028037407901138067,
                0.9999999403953552
            ],
            "scale" : [
                0.9999998807907104,
                0.9999999403953552,
                0.9999999403953552
            ],
            "translation" : [
                3.127125780544304e-10,
                0.03409379720687866,
                -5.350786480562419e-10
            ]
        },
        {
            "children" : [
                3
            ],
            "name" : "middle.001",
            "rotation" : [
                0.0018431016942486167,
                -2.0778395537490724e-06,
                0.001399838482029736,
                0.9999973177909851
            ],
            "scale" : [
                0.9999999403953552,
                0.9999999403953552,
                0.9999999403953552
            ],
            "translation" : [
                9.829919517256869e-11,
                0.03342452645301819,
                -8.517275773556321e-10
            ]
        },
        {
            "children" : [
                4
            ],
            "name" : "middle.000",
            "rotation" : [
                -0.0016665972070768476,
                1.8659419538380462e-06,
                -0.001119474763981998,
                0.9999979734420776
            ],
            "translation" : [
                -0.014091777615249157,
                0.0815107598900795,
                -0.0012421607971191406
            ]
        },
        {
            "name" : "ring.002",
            "rotation" : [
                -0.00017379097698722035,
                -5.655756396549805e-08,
                -0.000276616687187925,
                0.9999999403953552
            ],
            "scale" : [
                0.9999999403953552,
                0.9999999403953552,
                1
            ],
            "translation" : [
                1.6749485132194764e-10,
                0.03036869876086712,
                -6.401137397915591e-10
            ]
        },
        {
            "children" : [
                6
            ],
            "name" : "ring.001",
            "rotation" : [
                0.0018403929425403476,
                -2.0758759546879446e-06,
                0.0013961218064650893,
                0.9999973177909851
            ],
            "translation" : [
                -1.3129759501850913e-09,
                0.02977255918085575,
                -7.114877575986611e-10
            ]
        },
        {
            "children" : [
                7
            ],
            "name" : "ring.000",
            "rotation" : [
                -0.001666603027842939,
                1.865971057668503e-06,
                -0.0011194981634616852,
                0.9999979734420776
            ],
            "scale" : [
                1,
                0.9999999403953552,
                1
            ],
            "translation" : [
                0.010619083419442177,
                0.08171877264976501,
                -0.0012498535215854645
            ]
        },
        {
            "name" : "pinky.002",
            "rotation" : [
                -0.005654971580952406,
                1.4239922165870667e-06,
                -0.00027032141224481165,
                0.9999839663505554
            ],
            "translation" : [
                3.4087823674866513e-09,
                0.02474878542125225,
                1.7632562077096736e-10
            ]
        },
        {
            "children" : [
                9
            ],
            "name" : "pinky.001",
            "rotation" : [
                0.0018443316221237183,
                -2.060988663288299e-06,
                0.001389781478792429,
                0.9999974370002747
            ],
            "scale" : [
                1,
                0.9999999403953552,
                1
            ],
            "translation" : [
                -1.7359567117125607e-09,
                0.02426295354962349,
                -2.2100721253082156e-10
            ]
        },
        {
            "children" : [
                10
            ],
            "name" : "pinky.000",
            "rotation" : [
                -0.0016666008159518242,
                1.8659535498954938e-06,
                -0.0011194521794095635,
                0.9999979734420776
            ],
            "translation" : [
                0.03150099143385887,
                0.07650452107191086,
                -0.0012614596635103226
            ]
        },
        {
            "name" : "thumb.002",
            "rotation" : [
                2.421439049271612e-08,
                1.9186925825920298e-08,
                2.990141112491074e-08,
                1
            ],
            "scale" : [
                0.9999999403953552,
                0.9999999403953552,
                0.9999999403953552
            ],
            "translation" : [
                4.2718706350086677e-10,
                0.033678099513053894,
                -2.3283064365386963e-10
            ]
        },
        {
            "children" : [
                12
            ],
            "name" : "thumb.001",
            "rotation" : [
                -0.2995849847793579,
                -0.029204782098531723,
                -0.07287013530731201,
                0.950834333896637
            ],
            "scale" : [
                0.9999997615814209,
                1,
                1
            ],
            "translation" : [
                -1.564369411788391e-09,
                0.0180481169372797,
                -2.3283064365386963e-10
            ]
        },
        {
            "children" : [
                13
            ],
            "name" : "thumb.000",
            "rotation" : [
                -0.03899150341749191,
                -0.5214233994483948,
                0.47761648893356323,
                0.7060310244560242
            ],
            "scale" : [
                1.0000001192092896,
                1,
                1
            ],
            "translation" : [
                -0.04100138321518898,
                0.034975361078977585,
                -0.02974409982562065
            ]
        },
        {
            "children" : [
                2,
                5,
                8,
                11,
                14
            ],
            "name" : "hand",
            "rotation" : [
                -0.7071068286895752,
                1.1520624099148336e-07,
                1.1520624099148336e-07,
                0.7071068286895752
            ],
            "translation" : [
                -5.192914613871835e-05,
                0.009262535721063614,
                0.038599587976932526
            ]
        },
        {
            "mesh" : 0,
            "name" : "FirstHand",
            "skin" : 0
        },
        {
            "children" : [
                16,
                15
            ],
            "name" : "Armature"
        }
    ],
    "materials" : [
        {
            "doubleSided" : true,
            "name" : "Hand",
            "pbrMetallicRoughness" : {
                "baseColorTexture" : {
                    "index" : 0
                },
                "metallicFactor" : 0,
                "roughnessFactor" : 0.5527864098548889
            }
        }
    ],
    "meshes" : [
        {
            "name" : "FirstHand",
            "primitives" : [
                {
                    "attributes" : {
                        "POSITION" : 0,
                        "NORMAL" : 1,
                        "TEXCOORD_0" : 2,
                        "JOINTS_0" : 3,
                        "WEIGHTS_0" : 4
                    },
                    "indices" : 5,
                    "material" : 0
                }
            ]
        }
    ],
    "textures" : [
        {
            "sampler" : 0,
            "source" : 0
        }
    ],
    "images" : [
        {
            "mimeType" : "image/jpeg",
            "name" : "HandUpgradeRetro_Albedo",
            "uri" : "HandUpgradeRetro_Albedo.jpg"
        }
    ],
    "skins" : [
        {
            "inverseBindMatrices" : 6,
            "joints" : [
                15,
                2,
                1,
                0,
                5,
                4,
                3,
                8,
                7,
                6,
                11,
                10,
                9,
                14,
                13,
                12
            ],
            "name" : "Armature"
        }
    ],
    "accessors" : [
        {
            "bufferView" : 0,
            "componentType" : 5126,
            "count" : 10640,
            "max" : [
                0.043099772185087204,
                0.035761475563049316,
                0.04836283624172211
            ],
            "min" : [
                -0.06211957708001137,
                -0.06995406746864319,
                -0.1410236656665802
            ],
            "type" : "VEC3"
        },
        {
            "bufferView" : 1,
            "componentType" : 5126,
            "count" : 10640,
            "type" : "VEC3"
        },
        {
            "bufferView" : 2,
            "componentType" : 5126,
            "count" : 10640,
            "type" : "VEC2"
        },
        {
            "bufferView" : 3,
            "componentType" : 5121,
            "count" : 10640,
            "type" : "VEC4"
        },
        {
            "bufferView" : 4,
            "componentType" : 5126,
            "count" : 10640,
            "type" : "VEC4"
        },
        {
            "bufferView" : 5,
            "componentType" : 5123,
            "count" : 37212,
            "type" : "SCALAR"
        },
        {
            "bufferView" : 6,
            "componentType" : 5126,
            "count" : 16,
            "type" : "MAT4"
        }
    ],
    "bufferViews" : [
        {
            "buffer" : 0,
            "byteLength" : 127680,
            "byteOffset" : 0
        },
        {
            "buffer" : 0,
            "byteLength" : 127680,
            "byteOffset" : 127680
        },
        {
            "buffer" : 0,
            "byteLength" : 85120,
            "byteOffset" : 255360
        },
        {
            "buffer" : 0,
            "byteLength" : 42560,
            "byteOffset" : 340480
        },
        {
            "buffer" : 0,
            "byteLength" : 170240,
            "byteOffset" : 383040
        },
        {
            "buffer" : 0,
            "byteLength" : 74424,
            "byteOffset" : 553280
        },
        {
            "buffer" : 0,
            "byteLength" : 1024,
            "byteOffset" : 627704
        }
    ],
    "samplers" : [
        {
            "magFilter" : 9729,
            "minFilter" : 9987
        }
    ],
    "buffers" : [
        {
            "byteLength" : 628728,
            "uri" : "first_hand.bin"
        }
    ]
}
