{
    "asset" : {
        "generator" : "Khronos glTF Blender I/O v1.8.19",
        "version" : "2.0"
    },
    "scene" : 0,
    "scenes" : [
        {
            "name" : "Scene",
            "nodes" : [
                25,
                26
            ]
        }
    ],
    "nodes" : [
        {
            "name" : "INDEX_3_R",
            "rotation" : [
                0.06999502331018448,
                1.2916803825646639e-05,
                0.0022529230918735266,
                0.9975448846817017
            ],
            "scale" : [
                0.9999999403953552,
                0.9999998211860657,
                0.9999998807907104
            ],
            "translation" : [
                -1.0277479844944537e-07,
                0.45823314785957336,
                -3.307964746568359e-08
            ]
        },
        {
            "children" : [
                0
            ],
            "name" : "INDEX_2_R",
            "rotation" : [
                0.02228252962231636,
                0.0001967555144801736,
                -0.002288956195116043,
                0.9997490644454956
            ],
            "scale" : [
                1.0000001192092896,
                1.0000001192092896,
                1
            ],
            "translation" : [
                -2.984814884143816e-08,
                0.49274542927742004,
                -8.352373903619537e-09
            ]
        },
        {
            "children" : [
                1
            ],
            "name" : "INDEX_1_R",
            "rotation" : [
                -0.01890287734568119,
                8.718474418856204e-05,
                -0.00465051643550396,
                0.999810516834259
            ],
            "scale" : [
                1.0000001192092896,
                1.0000001192092896,
                1.0000001192092896
            ],
            "translation" : [
                2.4347635019239533e-10,
                0.4835938811302185,
                -7.821654435247183e-10
            ]
        },
        {
            "children" : [
                2
            ],
            "name" : "HAND_1_2_R",
            "rotation" : [
                -2.6294753752154065e-07,
                -5.517213075290073e-11,
                -1.2665987014770508e-07,
                1
            ],
            "scale" : [
                1,
                1,
                0.9999999403953552
            ],
            "translation" : [
                -1.0406698436327133e-07,
                0.48359426856040955,
                -1.5425030142068863e-09
            ]
        },
        {
            "children" : [
                3
            ],
            "name" : "HAND_1_R",
            "rotation" : [
                0.0003690333105623722,
                -2.1906978872721083e-05,
                0.1037406250834465,
                0.9946043491363525
            ],
            "scale" : [
                0.9999999403953552,
                0.9999999403953552,
                0.9999998211860657
            ],
            "translation" : [
                -0.5497667789459229,
                0.4626852869987488,
                0.015443970449268818
            ]
        },
        {
            "name" : "MIDDLE_3_R",
            "rotation" : [
                0.048991281539201736,
                -0.030645275488495827,
                -0.005794244352728128,
                0.9983121752738953
            ],
            "scale" : [
                0.9999998807907104,
                0.9999998807907104,
                0.9999998807907104
            ],
            "translation" : [
                3.5438823431377386e-08,
                0.4945712685585022,
                -2.4735667736308642e-08
            ]
        },
        {
            "children" : [
                5
            ],
            "name" : "MIDDLE_2_R",
            "rotation" : [
                0.029243843629956245,
                2.6586305466480553e-05,
                -0.004931906703859568,
                0.9995602369308472
            ],
            "scale" : [
                1.0000001192092896,
                1,
                1.0000001192092896
            ],
            "translation" : [
                4.8742485603270325e-08,
                0.5347134470939636,
                -6.296608123790293e-09
            ]
        },
        {
            "children" : [
                6
            ],
            "name" : "MIDDLE_1_R",
            "rotation" : [
                -0.01747550070285797,
                -4.185501438769279e-07,
                2.800556285365019e-05,
                0.9998472929000854
            ],
            "scale" : [
                1,
                0.9999999403953552,
                0.9999999403953552
            ],
            "translation" : [
                -4.443951695520809e-08,
                0.46721959114074707,
                -6.578598998885354e-09
            ]
        },
        {
            "children" : [
                7
            ],
            "name" : "HAND_2_2_R",
            "rotation" : [
                1.6317386553055258e-07,
                -4.811888665301467e-10,
                3.660098855107208e-07,
                1
            ],
            "scale" : [
                1.0000001192092896,
                0.9999999403953552,
                1
            ],
            "translation" : [
                -6.308667366283771e-08,
                0.46722060441970825,
                -2.2737799056787855e-12
            ]
        },
        {
            "children" : [
                8
            ],
            "name" : "HAND_2_R",
            "rotation" : [
                0.0004419161123223603,
                -1.831252916417725e-06,
                0.013050475157797337,
                0.999914824962616
            ],
            "scale" : [
                1.0000001192092896,
                1,
                0.9999999403953552
            ],
            "translation" : [
                -0.2513525187969208,
                0.5147154331207275,
                0.015624831430613995
            ]
        },
        {
            "name" : "RING_3_R",
            "rotation" : [
                0.06590337306261063,
                0.00032593411742709577,
                0.004462428390979767,
                0.9978159666061401
            ],
            "scale" : [
                1,
                1.000000238418579,
                0.9999999403953552
            ],
            "translation" : [
                6.495100279835242e-08,
                0.45459696650505066,
                3.26927604987759e-08
            ]
        },
        {
            "children" : [
                10
            ],
            "name" : "RING_2_R",
            "rotation" : [
                0.02136104740202427,
                2.6194093152298592e-05,
                -0.0018179798498749733,
                0.9997702836990356
            ],
            "scale" : [
                1,
                0.9999999403953552,
                0.9999999403953552
            ],
            "translation" : [
                8.936325457398198e-08,
                0.5158712863922119,
                5.698537197673659e-09
            ]
        },
        {
            "children" : [
                11
            ],
            "name" : "RING_1_R",
            "rotation" : [
                -0.017793672159314156,
                1.7801959984353743e-05,
                -0.0009902834426611662,
                0.9998412132263184
            ],
            "scale" : [
                1,
                1.0000001192092896,
                1
            ],
            "translation" : [
                4.122670205219947e-08,
                0.44022712111473083,
                1.1450431713910803e-09
            ]
        },
        {
            "children" : [
                12
            ],
            "name" : "HAND_3_2_R",
            "rotation" : [
                6.429195309465285e-07,
                4.175153556218447e-10,
                1.5646223516796454e-07,
                1
            ],
            "scale" : [
                1.0000001192092896,
                0.9999999403953552,
                1
            ],
            "translation" : [
                1.1440004499263523e-08,
                0.4402274489402771,
                -7.530616130679846e-10
            ]
        },
        {
            "children" : [
                13
            ],
            "name" : "HAND_3_R",
            "rotation" : [
                0.00019946545944549143,
                3.0349418011610396e-05,
                -0.07943268120288849,
                0.996840238571167
            ],
            "scale" : [
                1,
                0.9999999403953552,
                1
            ],
            "translation" : [
                0.04484029859304428,
                0.529850423336029,
                0.016396677121520042
            ]
        },
        {
            "name" : "PINKIE_3_R",
            "rotation" : [
                0.07281046360731125,
                -0.00014410725270863622,
                -0.002177099697291851,
                0.9973434209823608
            ],
            "scale" : [
                0.9999998807907104,
                0.9999999403953552,
                1
            ],
            "translation" : [
                -2.2666377219593414e-08,
                0.38100212812423706,
                8.816041429868249e-13
            ]
        },
        {
            "children" : [
                15
            ],
            "name" : "PINKIE_2_R",
            "rotation" : [
                0.01476996298879385,
                1.613441781955771e-05,
                -0.0007483068038709462,
                0.9998907446861267
            ],
            "scale" : [
                1,
                0.9999998807907104,
                0.9999999403953552
            ],
            "translation" : [
                -1.5257510810329222e-08,
                0.4124382436275482,
                -2.7919448974955685e-09
            ]
        },
        {
            "children" : [
                16
            ],
            "name" : "PINKIE_1_R",
            "rotation" : [
                -0.018547741696238518,
                9.56790754571557e-05,
                -0.0053823646157979965,
                0.9998134970664978
            ],
            "scale" : [
                1.0000001192092896,
                1.0000001192092896,
                1.0000001192092896
            ],
            "translation" : [
                -7.455255257582394e-08,
                0.4162035286426544,
                -4.5135786774785913e-10
            ]
        },
        {
            "children" : [
                17
            ],
            "name" : "HAND_4_2_R",
            "rotation" : [
                7.256712706293911e-07,
                -1.8189250106104282e-10,
                1.4901257117116984e-08,
                1
            ],
            "scale" : [
                1,
                1,
                1.000000238418579
            ],
            "translation" : [
                -5.2033044539712137e-11,
                0.4162045121192932,
                3.6379793622032253e-10
            ]
        },
        {
            "children" : [
                18
            ],
            "name" : "HAND_4_R",
            "rotation" : [
                0.0006649188580922782,
                -1.8173561329604127e-05,
                -0.19091902673244476,
                0.981605589389801
            ],
            "scale" : [
                1,
                0.9999998807907104,
                1.0000001192092896
            ],
            "translation" : [
                0.28960251808166504,
                0.4463799297809601,
                -0.003630230436101556
            ]
        },
        {
            "name" : "THUMB_4_R",
            "rotation" : [
                -0.011562849394977093,
                -1.351748505840078e-05,
                0.0007171983015723526,
                0.9999328851699829
            ],
            "scale" : [
                1.0000001192092896,
                0.9999998807907104,
                1
            ],
            "translation" : [
                -4.628862271260914e-08,
                0.44715163111686707,
                6.591108103748411e-09
            ]
        },
        {
            "children" : [
                20
            ],
            "name" : "THUMB_3_R",
            "rotation" : [
                -0.0032438989728689194,
                2.1548050881392555e-06,
                -0.0005333102308213711,
                0.9999945759773254
            ],
            "scale" : [
                0.9999999403953552,
                1,
                0.9999999403953552
            ],
            "translation" : [
                -6.377732120199653e-08,
                0.47653570771217346,
                3.6712259898763477e-09
            ]
        },
        {
            "children" : [
                21
            ],
            "name" : "THUMB_2_R",
            "rotation" : [
                0.1223260909318924,
                -0.00032309239031746984,
                -0.011698233895003796,
                0.9924209713935852
            ],
            "scale" : [
                0.9999999403953552,
                1.0000001192092896,
                0.9999999403953552
            ],
            "translation" : [
                4.538037945422957e-09,
                0.39533132314682007,
                2.4749986948791047e-08
            ]
        },
        {
            "children" : [
                22
            ],
            "name" : "THUMB_1_R",
            "rotation" : [
                -0.08653425425291061,
                -0.08702731877565384,
                0.7121458053588867,
                0.6912210583686829
            ],
            "scale" : [
                0.9999998807907104,
                1.0000001192092896,
                1
            ],
            "translation" : [
                -0.2867891490459442,
                0.4072827100753784,
                -0.07205813378095627
            ]
        },
        {
            "children" : [
                4,
                9,
                14,
                19,
                23
            ],
            "name" : "WRIST_R",
            "rotation" : [
                -0.7073126435279846,
                -8.89656221261248e-05,
                -8.900776447262615e-05,
                0.7069008946418762
            ],
            "scale" : [
                0.9999999403953552,
                0.9999999403953552,
                1
            ],
            "translation" : [
                0,
                0,
                1.1641532182693481e-10
            ]
        },
        {
            "children" : [
                24
            ],
            "name" : "Armature"
        },
        {
            "mesh" : 0,
            "name" : "HAND",
            "skin" : 0
        }
    ],
    "materials" : [
        {
            "doubleSided" : true,
            "name" : "HAND",
            "pbrMetallicRoughness" : {
                "baseColorTexture" : {
                    "index" : 0
                },
                "metallicFactor" : 0,
                "roughnessFactor" : 0.3102189898490906
            }
        },
        {
            "doubleSided" : true,
            "name" : "FINGERS",
            "pbrMetallicRoughness" : {
                "baseColorTexture" : {
                    "index" : 1
                },
                "metallicFactor" : 0,
                "roughnessFactor" : 0.3102189898490906
            }
        },
        {
            "doubleSided" : true,
            "name" : "FOREARM",
            "pbrMetallicRoughness" : {
                "baseColorTexture" : {
                    "index" : 2
                },
                "metallicFactor" : 0,
                "roughnessFactor" : 0.3102189898490906
            }
        }
    ],
    "meshes" : [
        {
            "name" : "Circle.008",
            "primitives" : [
                {
                    "attributes" : {
                        "POSITION" : 0,
                        "NORMAL" : 1,
                        "TEXCOORD_0" : 2,
                        "JOINTS_0" : 3,
                        "WEIGHTS_0" : 4
                    },
                    "indices" : 5,
                    "material" : 0
                },
                {
                    "attributes" : {
                        "POSITION" : 6,
                        "NORMAL" : 7,
                        "TEXCOORD_0" : 8,
                        "JOINTS_0" : 9,
                        "WEIGHTS_0" : 10
                    },
                    "indices" : 11,
                    "material" : 1
                },
                {
                    "attributes" : {
                        "POSITION" : 12,
                        "NORMAL" : 13,
                        "TEXCOORD_0" : 14,
                        "JOINTS_0" : 15,
                        "WEIGHTS_0" : 16
                    },
                    "indices" : 17,
                    "material" : 2
                }
            ]
        }
    ],
    "textures" : [
        {
            "sampler" : 0,
            "source" : 0
        },
        {
            "sampler" : 0,
            "source" : 1
        },
        {
            "sampler" : 0,
            "source" : 2
        }
    ],
    "images" : [
        {
            "mimeType" : "image/jpeg",
            "name" : "ROBOT_ARM_HAND_BaseColor",
            "uri" : "ROBOT_ARM_HAND_BaseColor.jpg"
        },
        {
            "mimeType" : "image/jpeg",
            "name" : "ROBOT_ARM_FINGERS_BaseColor",
            "uri" : "ROBOT_ARM_FINGERS_BaseColor.jpg"
        },
        {
            "mimeType" : "image/jpeg",
            "name" : "ROBOT_ARM_FOREARM_BaseColor",
            "uri" : "ROBOT_ARM_FOREARM_BaseColor.jpg"
        }
    ],
    "skins" : [
        {
            "inverseBindMatrices" : 18,
            "joints" : [
                24,
                4,
                3,
                2,
                1,
                0,
                9,
                8,
                7,
                6,
                5,
                14,
                13,
                12,
                11,
                10,
                19,
                18,
                17,
                16,
                15,
                23,
                22,
                21,
                20
            ],
            "name" : "Armature"
        }
    ],
    "accessors" : [
        {
            "bufferView" : 0,
            "componentType" : 5126,
            "count" : 8350,
            "max" : [
                0.8194925785064697,
                0.5079062581062317,
                0.026170268654823303
            ],
            "min" : [
                -1.0417165756225586,
                -0.5048653483390808,
                -1.555652141571045
            ],
            "type" : "VEC3"
        },
        {
            "bufferView" : 1,
            "componentType" : 5126,
            "count" : 8350,
            "type" : "VEC3"
        },
        {
            "bufferView" : 2,
            "componentType" : 5126,
            "count" : 8350,
            "type" : "VEC2"
        },
        {
            "bufferView" : 3,
            "componentType" : 5121,
            "count" : 8350,
            "type" : "VEC4"
        },
        {
            "bufferView" : 4,
            "componentType" : 5126,
            "count" : 8350,
            "type" : "VEC4"
        },
        {
            "bufferView" : 5,
            "componentType" : 5123,
            "count" : 32916,
            "type" : "SCALAR"
        },
        {
            "bufferView" : 6,
            "componentType" : 5126,
            "count" : 19601,
            "max" : [
                1.2219953536987305,
                0.21385373175144196,
                -0.051374927163124084
            ],
            "min" : [
                -2.053682327270508,
                -0.5125595927238464,
                -3.1075515747070312
            ],
            "type" : "VEC3"
        },
        {
            "bufferView" : 7,
            "componentType" : 5126,
            "count" : 19601,
            "type" : "VEC3"
        },
        {
            "bufferView" : 8,
            "componentType" : 5126,
            "count" : 19601,
            "type" : "VEC2"
        },
        {
            "bufferView" : 9,
            "componentType" : 5121,
            "count" : 19601,
            "type" : "VEC4"
        },
        {
            "bufferView" : 10,
            "componentType" : 5126,
            "count" : 19601,
            "type" : "VEC4"
        },
        {
            "bufferView" : 11,
            "componentType" : 5123,
            "count" : 88824,
            "type" : "SCALAR"
        },
        {
            "bufferView" : 12,
            "componentType" : 5126,
            "count" : 877,
            "max" : [
                0.4180833101272583,
                0.4180830419063568,
                0.5188478231430054
            ],
            "min" : [
                -0.4180833101272583,
                -0.4180838167667389,
                -0.4159446358680725
            ],
            "type" : "VEC3"
        },
        {
            "bufferView" : 13,
            "componentType" : 5126,
            "count" : 877,
            "type" : "VEC3"
        },
        {
            "bufferView" : 14,
            "componentType" : 5126,
            "count" : 877,
            "type" : "VEC2"
        },
        {
            "bufferView" : 15,
            "componentType" : 5121,
            "count" : 877,
            "type" : "VEC4"
        },
        {
            "bufferView" : 16,
            "componentType" : 5126,
            "count" : 877,
            "type" : "VEC4"
        },
        {
            "bufferView" : 17,
            "componentType" : 5123,
            "count" : 4512,
            "type" : "SCALAR"
        },
        {
            "bufferView" : 18,
            "componentType" : 5126,
            "count" : 25,
            "type" : "MAT4"
        }
    ],
    "bufferViews" : [
        {
            "buffer" : 0,
            "byteLength" : 100200,
            "byteOffset" : 0
        },
        {
            "buffer" : 0,
            "byteLength" : 100200,
            "byteOffset" : 100200
        },
        {
            "buffer" : 0,
            "byteLength" : 66800,
            "byteOffset" : 200400
        },
        {
            "buffer" : 0,
            "byteLength" : 33400,
            "byteOffset" : 267200
        },
        {
            "buffer" : 0,
            "byteLength" : 133600,
            "byteOffset" : 300600
        },
        {
            "buffer" : 0,
            "byteLength" : 65832,
            "byteOffset" : 434200
        },
        {
            "buffer" : 0,
            "byteLength" : 235212,
            "byteOffset" : 500032
        },
        {
            "buffer" : 0,
            "byteLength" : 235212,
            "byteOffset" : 735244
        },
        {
            "buffer" : 0,
            "byteLength" : 156808,
            "byteOffset" : 970456
        },
        {
            "buffer" : 0,
            "byteLength" : 78404,
            "byteOffset" : 1127264
        },
        {
            "buffer" : 0,
            "byteLength" : 313616,
            "byteOffset" : 1205668
        },
        {
            "buffer" : 0,
            "byteLength" : 177648,
            "byteOffset" : 1519284
        },
        {
            "buffer" : 0,
            "byteLength" : 10524,
            "byteOffset" : 1696932
        },
        {
            "buffer" : 0,
            "byteLength" : 10524,
            "byteOffset" : 1707456
        },
        {
            "buffer" : 0,
            "byteLength" : 7016,
            "byteOffset" : 1717980
        },
        {
            "buffer" : 0,
            "byteLength" : 3508,
            "byteOffset" : 1724996
        },
        {
            "buffer" : 0,
            "byteLength" : 14032,
            "byteOffset" : 1728504
        },
        {
            "buffer" : 0,
            "byteLength" : 9024,
            "byteOffset" : 1742536
        },
        {
            "buffer" : 0,
            "byteLength" : 1600,
            "byteOffset" : 1751560
        }
    ],
    "samplers" : [
        {
            "magFilter" : 9729,
            "minFilter" : 9987
        }
    ],
    "buffers" : [
        {
            "byteLength" : 1753160,
            "uri" : "rivot_hand_r.bin"
        }
    ]
}
